<?xml version="1.0" standalone="no"?>
<!DOCTYPE svg PUBLIC "-//W3C//DTD SVG 20010904//EN"
 "http://www.w3.org/TR/2001/REC-SVG-20010904/DTD/svg10.dtd">
<svg version="1.0" xmlns="http://www.w3.org/2000/svg"
 width="30.000000pt" height="25.000000pt" viewBox="0 0 30.000000 25.000000"
 preserveAspectRatio="xMidYMid meet">

<g transform="translate(0.000000,25.000000) scale(0.100000,-0.100000)"
fill="#000000" stroke="none">
<path d="M88 227 c15 -18 -1 -39 -24 -32 -10 4 -3 -3 16 -14 23 -13 45 -18 63
-15 20 4 27 2 27 -10 0 -9 5 -16 12 -16 6 0 9 -3 5 -6 -5 -5 -40 4 -112 31
-16 7 -18 6 -7 -6 6 -7 12 -22 12 -32 0 -17 -2 -18 -17 -6 -15 13 -15 12 -5
-7 6 -12 26 -34 44 -50 18 -15 32 -31 30 -36 -1 -5 4 -11 12 -14 21 -8 100 49
124 88 36 60 37 77 6 109 -31 32 -68 38 -99 15 -17 -12 -23 -12 -47 0 -35 18
-54 19 -40 1z m74 -30 c14 -11 11 -13 -23 -14 -37 -2 -48 5 -32 20 10 11 36 8
55 -6z"/>
</g>
</svg>
